<svg width="108" height="108" viewBox="0 0 108 108" fill="none" xmlns="http://www.w3.org/2000/svg">
<path d="M104.639 13.0952C105.269 13.7278 105.623 14.5847 105.623 15.478C105.623 16.3712 105.269 17.2281 104.639 17.8607L97.5984 24.9077L84.0984 11.4077L91.1386 4.36071C91.7716 3.728 92.6298 3.37256 93.5248 3.37256C94.4197 3.37256 95.278 3.728 95.9109 4.36071L104.639 13.0885V13.0952ZM92.8261 29.6732L79.3261 16.1732L33.3384 62.1677C32.9669 62.5391 32.6872 62.9922 32.5217 63.4907L27.0879 79.7852C26.9894 80.0823 26.9754 80.4009 27.0475 80.7054C27.1196 81.01 27.275 81.2885 27.4963 81.5098C27.7176 81.7311 27.9961 81.8865 28.3007 81.9586C28.6052 82.0308 28.9238 82.0168 29.2209 81.9182L45.5154 76.4845C46.0133 76.3209 46.4663 76.0435 46.8384 75.6745L92.8261 29.68V29.6732Z" fill="black"/>
<path fill-rule="evenodd" clip-rule="evenodd" d="M6.75 91.125C6.75 93.8103 7.81674 96.3857 9.71554 98.2845C11.6143 100.183 14.1897 101.25 16.875 101.25H91.125C93.8103 101.25 96.3857 100.183 98.2845 98.2845C100.183 96.3857 101.25 93.8103 101.25 91.125V50.625C101.25 49.7299 100.894 48.8715 100.261 48.2385C99.6286 47.6056 98.7701 47.25 97.875 47.25C96.9799 47.25 96.1214 47.6056 95.4885 48.2385C94.8556 48.8715 94.5 49.7299 94.5 50.625V91.125C94.5 92.0201 94.1444 92.8786 93.5115 93.5115C92.8786 94.1444 92.0201 94.5 91.125 94.5H16.875C15.9799 94.5 15.1215 94.1444 14.4885 93.5115C13.8556 92.8786 13.5 92.0201 13.5 91.125V16.875C13.5 15.9799 13.8556 15.1215 14.4885 14.4885C15.1215 13.8556 15.9799 13.5 16.875 13.5H60.75C61.6451 13.5 62.5036 13.1444 63.1365 12.5115C63.7694 11.8786 64.125 11.0201 64.125 10.125C64.125 9.22989 63.7694 8.37145 63.1365 7.73851C62.5036 7.10558 61.6451 6.75 60.75 6.75H16.875C14.1897 6.75 11.6143 7.81674 9.71554 9.71554C7.81674 11.6143 6.75 14.1897 6.75 16.875V91.125Z" fill="black"/>
</svg>
